<?xml version="1.0" encoding="UTF-8" standalone="no"?>
<!--Created with Vectornator for iOS (http://vectornator.io/)-->
<!DOCTYPE svg PUBLIC "-//W3C//DTD SVG 1.1//EN" "http://www.w3.org/Graphics/SVG/1.1/DTD/svg11.dtd">
<svg xmlns="http://www.w3.org/2000/svg" xmlns:vectornator="http://vectornator.io" xmlns:xlink="http://www.w3.org/1999/xlink" width="100%" height="100%" style="fill-rule:evenodd;clip-rule:evenodd;stroke-linecap:round;stroke-linejoin:round" version="1.1" viewBox="0 0 2048 2048" xml:space="preserve">
  <metadata>
    <vectornator:setting key="DimensionsVisible" value="1"/>
    <vectornator:setting key="PencilOnly" value="1"/>
    <vectornator:setting key="SnapToPoints" value="0"/>
    <vectornator:setting key="OutlineMode" value="0"/>
    <vectornator:setting key="CMYKEnabledKey" value="0"/>
    <vectornator:setting key="RulersVisible" value="1"/>
    <vectornator:setting key="SnapToEdges" value="0"/>
    <vectornator:setting key="GuidesVisible" value="1"/>
    <vectornator:setting key="DisplayWhiteBackground" value="0"/>
    <vectornator:setting key="doHistoryDisabled" value="0"/>
    <vectornator:setting key="SnapToGuides" value="1"/>
    <vectornator:setting key="TimeLapseWatermarkDisabled" value="0"/>
    <vectornator:setting key="Units" value="Pixels"/>
    <vectornator:setting key="DynamicGuides" value="0"/>
    <vectornator:setting key="IsolateActiveLayer" value="0"/>
    <vectornator:setting key="SnapToGrid" value="0"/>
  </metadata>
  <defs>
    <linearGradient id="LinearGradient" x1="3523.94" x2="3770.49" y1="635.845" y2="1768.93" gradientTransform="matrix(1.47635 0 0 1.47635 -4140.98 -952.781)" gradientUnits="userSpaceOnUse">
      <stop offset="0" stop-color="#e95454"/>
      <stop offset="0.223301" stop-color="#be2b2b"/>
      <stop offset="0.621359" stop-color="#f94d4d"/>
      <stop offset="1" stop-color="#7a2f2f"/>
    </linearGradient>
  </defs>
  <g id="ぜんぶ" vectornator:layerName="ぜんぶ">
    <path fill="#ffe3eb" stroke="#9d6772" stroke-linecap="butt" stroke-linejoin="round" stroke-width="5" d="M-227.194-40.6853L2120.69-40.6853C2212.79-40.6853+2287.45+33.9783+2287.45+126.081L2287.45+2080.58C2287.45+2172.68+2212.79+2247.34+2120.69+2247.34L-227.194+2247.34C-319.296+2247.34-393.96+2172.68-393.96+2080.58L-393.96+126.081C-393.96+33.9783-319.296-40.6853-227.194-40.6853Z" opacity="0"/>
    <path fill="#dca4eb" stroke="#602e2e" stroke-linecap="butt" stroke-linejoin="round" stroke-width="5" d="M777.804+1646.71C777.804+1646.71+220.9+1855.42+195.757+1913.79C17.4133+2327.8+78.1057+2182.59-90.7439+2511.11C-259.593+2839.63-748.583+3092.25-680.238+3060.08C-611.892+3027.92-369.675+3428.42-369.675+3428.42C-369.675+3428.42+234.197+2749.78+291.708+2505.36C113.422+2884.94+191.063+3920.14+1.27466+3986.28C-188.514+4052.42+1988.3+4040.92+1939.42+3994.91C1789.8+3854.1+1638.08+2657.82+1699.6+2637.66C1761.13+2617.51+2121.98+3384.63+2189.59+3342.15C2267.03+3293.5+2467.51+3172.13+2471.12+3101.16C2477.97+2966.59+2148.3+2753.03+2091.82+2562.87C2005.55+2272.44+1927.91+2001.87+1847.4+1921.36C1787.89+1861.85+1333.21+1683.33+1333.21+1683.33C1333.21+1683.33+1273.64+1837.32+1054.96+1943.48C789.253+1786.83+777.804+1646.71+777.804+1646.71Z" opacity="1"/>
    <path fill="#f7d8ff" stroke="#602e2e" stroke-linecap="butt" stroke-linejoin="round" stroke-width="5" d="M777.804+1646.71C777.804+1646.71+741.259+1660.31+694.05+1679.34C800.73+1898.58+962.739+1982.87+1053.7+2005.19C1157.97+1995.52+1338.97+1867.58+1407.3+1713C1384.25+1704.95+1333.21+1683.33+1333.21+1683.33C1333.21+1683.33+1273.64+1837.32+1054.96+1943.48C789.253+1786.83+777.804+1646.71+777.804+1646.71Z" opacity="1"/>
    <path fill="#ffffff" d="M1037.09+497.909C1211.57+503.161+1474.4+473.092+1697.93+437.428C1721.38+475.97+1706.67+490.903+1733.11+551.168C1733.11+417.517+1702.17+228.621+1574.39+104.739C1672.09+242.202+1672.09+387.348+1672.09+387.348C1672.09+387.348+1137.54+450.23+1041.09+451.076C945.883+451.912+813.203+443.462+584.043+418.401C584.043+418.401+731.541+488.71+1037.09+497.909Z" opacity="0.768722"/>
    <path fill="none" stroke="#602e2e" stroke-linecap="butt" stroke-linejoin="round" stroke-width="4" d="M1146.65-41.1177C1264.27+33.8834+1412.57+92.6911+1459.44+300.649C1518.25+517.981+1466.47+720.464+1429.14+842.641C1390.68+701.233+1416.89+664.504+1346.2+494.849C1372.59+656.021+1356.56+681.469+1361.28+848.296C1280.22+817.193+1207.65+737.078+1163.35+675.814C1201.99+745.561+1213.3+755.929+1272.68+819.078C1196.33+781.377+831.577+677.699+780.681+382.689C792.934+626.803+812.727+755.929+779.738+815.308C768.428+747.446+657.183+694.815+647.001+505.893C645.87+708.391+699.037+722.52+603.842+876.152C595.359+648.061+433.076+596.209+531.697+290.897C575.624+154.908+711.137+14.2808+844.946-31.7426" opacity="1"/>
    <path fill="#f94040" stroke="#bd3853" stroke-linecap="butt" stroke-linejoin="round" stroke-width="5" d="M1697.37+668.577L328.968+657.311C328.968+657.311+413.751+1193.3+499.961+1419.17C553.832+1560.32+586.391+1803.23+631.334+1894.56C631.334+1888.66+497.305+1257.49+500.007+1191.82C492.576+1278.21+662.404+1668.88+662.404+1825.95C662.404+1560.32+699.418+1795.14+726.868+1506.28C713.859+1774.62+672.794+1761.11+694.05+1825.95C703.172+1853.78+779.267+1325.3+775.315+1343.43C769.774+1368.85+693.898+1939.63+726.868+2005.19C811.059+2172.61+1128.41+2024.89+1212.78+1932.95C1305.6+1831.79+1322.3+1554.02+1338.87+1381.59C1355.43+1560.32+1249.77+1993.23+1262.68+2005.19C1301.42+2041.09+1413.76+1408.77+1413.76+1316.26C1436.78+1487.55+1358.78+1879.8+1384.28+1938.85C1413.76+1712.61+1537.08+1542.7+1545.97+1507.76C1641.91+1130.99+1744.1+697.887+1733.11+678.892" opacity="1"/>
    <path fill="#f25f5f" stroke="#bd3853" stroke-linecap="butt" stroke-linejoin="round" stroke-width="5" d="M1697.37+668.577L328.968+657.311C328.968+657.311+311.232+828.656+407.99+1223.13C443.98+1369.86+539.1+1702.84+584.043+1794.17C584.043+1788.27+497.305+1257.49+500.007+1191.82C492.576+1278.21+603.885+1702.14+631.334+1825.95C631.334+1560.32+631.334+1642.98+658.784+1354.12C645.775+1622.46+662.404+1712.61+694.05+1869.76C726.868+1686.79+781.054+1298.13+777.102+1316.26C771.561+1341.68+746.559+1862.96+779.53+1928.52C863.721+2095.94+1128.41+2024.89+1212.78+1932.95C1305.6+1831.79+1278.21+1499.09+1294.78+1326.66C1311.34+1505.4+1316.77+1881.13+1329.68+1893.09C1368.42+1928.99+1413.76+1408.77+1413.76+1316.26C1436.78+1487.55+1388.22+2022.84+1442.97+1974.29C1442.97+1825.95+1620.35+1306.04+1629.25+1271.1C1725.19+894.336+1744.1+697.887+1733.11+678.892" opacity="1"/>
    <path fill="#fff6e4" stroke="#bd3853" stroke-linecap="butt" stroke-linejoin="round" stroke-width="5" d="M875.981+1433C875.981+1433+859.054+1598.1+775.315+1650.84C775.315+1650.84+797.81+1997.18+1039.43+2005.86C1281.05+2014.55+1348.27+1699.39+1337.85+1691.38C1244.87+1619.84+1229.17+1477.22+1206.7+1419.17" opacity="1"/>
    <path fill="#fff6e4" stroke="#bd3853" stroke-linecap="butt" stroke-linejoin="round" stroke-width="5" d="M339.98+646.717C331.53+309.862+471.118+77.7847+560.888+37.2037C928.576-260.39+1388.08-88.5688+1483.22+19.4666C1642.85+158.139+1660.59+353.247+1660.59+353.247C1660.59+353.247+1712.19+915.999+1550.94+1172.38C1473.46+1295.59+1130.35+1475.28+1023.67+1473.91C897.894+1472.3+651.278+1350.8+493.165+1135.29C425.722+1043.37+340.815+657.758+340.815+657.758" opacity="1"/>
    <path fill="#fffcfc" d="M1413.76+938.631C1409.68+923.623+1400.54+907.443+1388.07+891.696C1342.26+833.872+1251.5+781.874+1201.49+815.091C1152.69+847.511+1177.36+999.183+1236.28+1023.56C1327.93+1061.48+1395.63+974.397+1413.76+938.631Z" opacity="1"/>
    <path fill="#fffcfc" d="M658.784+938.631C662.861+923.623+672.003+907.443+684.479+891.696C730.288+833.872+821.045+781.874+871.051+815.091C919.858+847.511+895.188+999.183+836.265+1023.56C744.618+1061.48+676.912+974.397+658.784+938.631Z" opacity="1"/>
    <path fill="#d75843" stroke="#490a00" stroke-linecap="round" stroke-linejoin="round" stroke-width="5" d="M800.056+826.234C886.123+820.582+916.376+1031.82+793.947+1025.06C701.9+1019.99+705.574+830.293+798.874+826.234" opacity="1"/>
    <path fill="#d75843" stroke="#490a00" stroke-linecap="round" stroke-linejoin="round" stroke-width="5" d="M1301.22+844.798C1402.81+872.468+1353.37+1054.85+1280.07+1043.85C1232.69+1036.74+1213.04+995.751+1212.78+952.558C1212.44+893.502+1248.36+830.333+1299.24+844.035" opacity="1"/>
    <path fill="#56001b" stroke="#56001b" stroke-linecap="butt" stroke-linejoin="round" stroke-width="3" d="M1374.41+854.962C1374.41+854.962+1374.41+854.662+1386.47+870.118C1406.4+895.657+1411.48+901.358+1442.97+937.341C1425.47+927.878+1411.64+918.156+1406.05+910.604C1401.73+904.766+1422.62+936.559+1429.85+979.973C1385.14+868.463+1299.46+801.679+1236.39+809.055C1202.07+813.068+1179.08+838.522+1170.99+844.927C1174.78+833.635+1190.92+820.652+1203.98+811.864C1197.14+812.391+1173.52+821.642+1146.58+817.515C1166.87+813.884+1225.68+796.564+1243.5+795.856C1232.53+790.663+1210.37+782.185+1202.35+774.739C1210.4+775.186+1251.67+790.878+1270.03+794.232C1294.92+798.777+1343.74+818.921+1374.41+854.962Z" opacity="1"/>
    <path fill="#56001b" stroke="#56001b" stroke-linecap="butt" stroke-linejoin="round" stroke-width="3" d="M699.892+853.486C699.892+853.486+699.9+853.186+687.838+868.642C667.908+894.181+662.824+899.882+631.334+935.865C648.84+926.402+662.665+916.68+668.258+909.127C672.58+903.29+651.687+935.082+644.459+978.496C689.169+866.986+774.851+800.202+837.92+807.579C872.231+811.592+895.23+837.046+903.32+843.45C899.528+832.158+883.382+819.176+870.325+810.388C877.171+810.914+900.786+820.165+927.725+816.038C907.435+812.408+848.624+795.088+830.803+794.38C841.779+789.187+863.935+780.709+871.954+773.263C863.904+773.71+822.636+789.401+804.271+792.755C779.387+797.3+730.562+817.445+699.892+853.486Z" opacity="1"/>
    <path fill="#ff705a" stroke="#490a00" stroke-linecap="round" stroke-linejoin="round" stroke-width="3" d="M824.773+943.251C792.472+944.257+773.491+982.942+777.677+1014.87C778.948+1024.57+805.117+1025.76+816.749+1024.04C832.274+1021.75+867.043+1000.43+863.845+987.176C858.612+965.478+847.449+942.546+824.773+943.251Z" opacity="1"/>
    <path fill="#ff705a" stroke="#490a00" stroke-linecap="round" stroke-linejoin="round" stroke-width="3" d="M1281.47+1043.84C1299.41+1044.43+1320.83+1033.68+1328.19+1021.83C1335.22+1010.49+1317.29+952.097+1275.41+957.172C1252.77+959.916+1224.56+999.285+1235.1+1018.55C1242.67+1032.38+1260.35+1043.13+1281.47+1043.84Z" opacity="1"/>
    <path fill="#89200f" stroke="#490a00" stroke-linecap="round" stroke-linejoin="round" stroke-width="3" d="M1278.5+916.243C1298.19+915.69+1299.72+985.194+1277.72+985C1257.34+984.82+1257.74+916.826+1278.5+916.243Z" opacity="1"/>
    <path fill="#861f0f" stroke="#490a00" stroke-linecap="round" stroke-linejoin="round" stroke-width="3" d="M813.523+902.112C834.331+901.553+835.904+966.529+812.668+966.332C791.131+966.15+791.597+902.701+813.523+902.112Z" opacity="1"/>
    <path fill="#fffcfc" stroke="#490a00" stroke-linecap="round" stroke-linejoin="round" stroke-width="3" d="M828.809+886.843C820.159+877.959+842.319+855.524+850.03+863.389C856.586+870.076+837.46+895.727+828.809+886.843Z" opacity="1"/>
    <path fill="#fffcfc" stroke="#490a00" stroke-linecap="round" stroke-linejoin="round" stroke-width="3" d="M1294.94+883.092C1288.37+869.359+1314.05+843.086+1321.22+860.402C1328.16+877.182+1299.84+893.323+1294.94+883.092Z" opacity="1"/>
    <path fill="#ff6f6f" stroke="#bd3853" stroke-linecap="butt" stroke-linejoin="round" stroke-width="5" d="M1027.18-11.521C1097.07+46.3752+899.097-34.2387+806.136+88.7707C701.907+275.632+569.016+710.883+557.983+923.893C548.945+1098.37+658.724+1347.7+740.36+1512.71C679.567+1486.66+641.355+1434.55+592.721+1347.7C629.197+1451.92+677.83+1547.45+766.413+1642.98C615.301+1594.34+418.457+1288.34+338.749+965.956C278.349+721.669+216.343+442.638+446.654+123.746C564.239-39.065+794.345-138.96+990.539-129.681" opacity="1"/>
    <path fill="url(#LinearGradient)" stroke="#602e2e" stroke-linecap="square" stroke-linejoin="round" stroke-width="5" d="M980.271-130.545C1381.94-170.314+1670.19+59.5553+1725.33+423.54C1772.92+605.965+1757.21+861.572+1634.87+1186.17C1512.54+1510.76+1431.31+1557.17+1266.65+1642.98C1323.8+1581.63+1417.93+1434.95+1442.08+1385.91C1453.9+1361.91+1356.17+1512.02+1299.65+1526.6C1430.93+1336.97+1537.41+1088.15+1470.29+608.58C1364.13+319.372+1080.76+73.4518+1105.43+25.2837C1130.1-22.8844+966.512+2.37678+974.152-30.08" opacity="1"/>
    <path fill="#ff6f6f" stroke="#bd3853" stroke-linecap="square" stroke-linejoin="round" stroke-width="5" d="M980.271-130.545C1381.94-170.314+1670.19+59.5553+1725.33+423.54C1772.92+605.965+1757.21+861.572+1634.87+1186.17C1512.54+1510.76+1431.31+1557.17+1266.65+1642.98C1323.8+1581.63+1417.93+1434.95+1442.08+1385.91C1453.9+1361.91+1356.17+1512.02+1299.65+1526.6C1430.93+1336.97+1537.41+1088.15+1470.29+608.58C1364.13+319.372+1080.76+73.4518+1105.43+25.2837C1130.1-22.8844+966.512+2.37678+974.152-30.08" opacity="1"/>
    <path fill="#ff6f6f" stroke="#bd3853" stroke-linecap="butt" stroke-linejoin="round" stroke-width="4" d="M1146.01-40.5538C1263.71+34.3084+1412.08+92.9409+1459.2+300.843C1518.26+518.106+1466.72+720.65+1429.54+842.871C1390.91+701.508+1417.07+664.748+1346.18+495.177C1372.76+656.318+1356.77+681.785+1361.68+848.606C1280.59+817.599+1207.92+737.57+1163.55+676.358C1202.27+746.059+1213.59+756.413+1273.05+819.492C1196.66+781.882+831.78+678.635+780.535+383.684C793.076+627.784+813.022+756.886+780.103+816.304C768.713+748.456+657.405+695.957+647.001+507.047C646.109+709.545+699.293+723.612+604.279+877.356C595.527+649.275+433.182+597.615+531.443+292.187C575.209+156.146+710.556+15.359+844.311-30.8224" opacity="1"/>
    <path fill="none" stroke="#56001b" stroke-linecap="round" stroke-linejoin="round" stroke-width="6" d="M1186.35+666.4C1226.26+647.181+1309.85+657.192+1384.28+708.441" opacity="1"/>
    <path fill="none" stroke="#56001b" stroke-linecap="round" stroke-linejoin="round" stroke-width="6" d="M693.988+708.633C756.464+672.67+800.375+650.175+847.054+649.184C862.614+648.854+878.482+650.913+895.447+655.659" opacity="1"/>
    <path fill="none" stroke="#c23b66" stroke-linecap="round" stroke-linejoin="round" stroke-width="5" d="M1024+1135.18C1026.27+1139.91+1034.27+1149.91+1030.08+1153.74" opacity="1"/>
    <path fill="#ff6a6f" stroke="#f41100" stroke-linecap="round" stroke-linejoin="round" stroke-width="5" d="M984.01+1273.9C1007.65+1244.18+1046.35+1244.77+1067.85+1268C1088.22+1290.01+1106.31+1342.79+1022.77+1342.91C954.73+1341.21+964.663+1298.22+984.01+1273.9Z" opacity="1"/>
    <path fill="#ff91b6" stroke="#f41100" stroke-linecap="round" stroke-linejoin="round" stroke-width="5" d="M991.348+1335.05C1010.1+1342.79+1017.83+1342.43+1024+1341.98C1030.18+1341.52+1045.57+1342.39+1061.06+1334.23C1057.42+1308.74+996.28+1302+991.348+1335.05Z" opacity="1"/>
    <path fill="#dca4eb" stroke="#bc80cc" stroke-linecap="butt" stroke-linejoin="round" stroke-width="5" d="M777.804+1646.71C777.804+1646.71+220.9+1855.42+195.757+1913.79C17.4133+2327.8+78.1057+2182.59-90.7439+2511.11C-259.593+2839.63-748.583+3092.25-680.238+3060.08C-611.892+3027.92-369.675+3428.42-369.675+3428.42C-369.675+3428.42+234.197+2749.78+291.708+2505.36C113.422+2884.94+191.063+3920.14+1.27466+3986.28C-188.514+4052.42+1988.3+4040.92+1939.42+3994.91C1789.8+3854.1+1638.08+2657.82+1699.6+2637.66C1761.13+2617.51+2121.98+3384.63+2189.59+3342.15C2267.03+3293.5+2467.51+3172.13+2471.12+3101.16C2477.97+2966.59+2148.3+2753.03+2091.82+2562.87C2005.55+2272.44+1927.91+2001.87+1847.4+1921.36C1787.89+1861.85+1333.21+1683.33+1333.21+1683.33C1333.21+1683.33+1273.64+1837.32+1054.96+1943.48C789.253+1786.83+777.804+1646.71+777.804+1646.71Z" opacity="1"/>
    <path fill="#f7d8ff" stroke="#bc80cc" stroke-linecap="butt" stroke-linejoin="round" stroke-width="5" d="M777.804+1646.71C777.804+1646.71+741.259+1660.31+694.05+1679.34C800.73+1898.58+962.739+1982.87+1053.7+2005.19C1157.97+1995.52+1338.97+1867.58+1407.3+1713C1384.25+1704.95+1333.21+1683.33+1333.21+1683.33C1333.21+1683.33+1273.64+1837.32+1054.96+1943.48C789.253+1786.83+777.804+1646.71+777.804+1646.71Z" opacity="1"/>
    <path fill="#ffffff" d="M1038.37+497.909C1213.34+503.161+1476.91+473.092+1701.08+437.428C1725.49+503.814+1730.79+514.893+1744+559.004C1726.15+433.225+1705.33+228.621+1577.18+104.739C1675.16+242.202+1675.16+387.348+1675.16+387.348C1675.16+387.348+1139.1+450.23+1042.38+451.076C946.905+451.912+813.85+443.462+584.043+418.401C584.043+418.401+731.958+488.71+1038.37+497.909Z" opacity="0.768722"/>
    <path fill="none" stroke="#bd3853" stroke-linecap="butt" stroke-linejoin="round" stroke-width="4" d="M1146.65-41.1177C1264.27+33.8834+1412.57+92.6911+1459.44+300.649C1518.25+517.981+1466.47+720.464+1429.14+842.641C1390.68+701.233+1416.89+664.504+1346.2+494.849C1372.59+656.021+1356.56+681.469+1361.28+848.296C1280.22+817.193+1207.65+737.078+1163.35+675.814C1201.99+745.561+1213.3+755.929+1272.68+819.078C1196.33+781.377+831.577+677.699+780.681+382.689C792.934+626.803+812.727+755.929+779.738+815.308C768.428+747.446+657.183+694.815+647.001+505.893C645.87+708.391+699.037+722.52+603.842+876.152C595.359+648.061+433.076+596.209+531.697+290.897C575.624+154.908+711.137+14.2808+844.946-31.7426" opacity="1"/>
  </g>
</svg>
